<svg width="68" height="68" viewBox="0 0 68 68" fill="none" xmlns="http://www.w3.org/2000/svg">
<path fill-rule="evenodd" clip-rule="evenodd" d="M47.3365 34.8302C47.8676 35.3615 48.166 36.082 48.166 36.8333C48.166 37.5846 47.8676 38.3052 47.3365 38.8365L36.0031 50.1698C35.4718 50.701 34.7513 50.9994 34 50.9994C33.2487 50.9994 32.5281 50.701 31.9968 50.1698L20.6635 38.8365C20.1473 38.3021 19.8618 37.5864 19.8682 36.8435C19.8747 36.1006 20.1726 35.39 20.698 34.8647C21.2233 34.3394 21.9339 34.0414 22.6768 34.0349C23.4197 34.0285 24.1354 34.3141 24.6698 34.8302L34 44.1603L43.3301 34.8302C43.8615 34.299 44.582 34.0006 45.3333 34.0006C46.0846 34.0006 46.8051 34.299 47.3365 34.8302Z" fill="black"/>
<path fill-rule="evenodd" clip-rule="evenodd" d="M47.3365 17.8302C47.8676 18.3615 48.166 19.082 48.166 19.8333C48.166 20.5846 47.8676 21.3052 47.3365 21.8365L36.0031 33.1698C35.4718 33.701 34.7513 33.9994 34 33.9994C33.2487 33.9994 32.5281 33.701 31.9968 33.1698L20.6635 21.8365C20.1473 21.3021 19.8618 20.5864 19.8682 19.8435C19.8747 19.1006 20.1726 18.39 20.698 17.8647C21.2233 17.3394 21.9339 17.0414 22.6768 17.0349C23.4197 17.0285 24.1354 17.3141 24.6698 17.8302L34 27.1603L43.3301 17.8302C43.8615 17.299 44.582 17.0006 45.3333 17.0006C46.0846 17.0006 46.8051 17.299 47.3365 17.8302Z" fill="black"/>
</svg>
