<svg width="84" height="87" viewBox="0 0 84 87" fill="none" xmlns="http://www.w3.org/2000/svg">
<g clip-path="url(#clip0_7_5)">
<path d="M43.8874 79.4194C46.8808 77.0171 74.6773 49.9859 74.988 49.6904C76.2157 48.4627 76.9886 47.1896 77.2008 46.0226C77.4206 44.8101 77.0493 43.7491 76.0641 42.764C75.1472 41.847 74.0256 41.362 72.8207 41.362C71.3505 41.362 69.8425 42.0592 68.5845 43.3248L55.9821 55.4346C55.7623 55.6468 55.4743 55.7529 55.194 55.7529C54.9708 55.7534 54.7524 55.6879 54.5663 55.5647C54.3803 55.4414 54.2347 55.2659 54.1481 55.0602C54.0615 54.8546 54.0375 54.6279 54.0793 54.4086C54.1212 54.1894 54.2268 53.9874 54.3831 53.828L74.503 33.0488C76.5188 31.033 77.4661 27.9487 75.0714 25.5541C74.1544 24.6371 73.0329 24.1521 71.8279 24.1521C70.3578 24.1521 68.8497 24.8493 67.5918 26.1148L47.0096 46.1817C46.7898 46.3939 46.5018 46.5076 46.2139 46.5076C45.9259 46.5076 45.6304 46.3939 45.4106 46.1741C44.9711 45.7346 44.9635 45.0223 45.403 44.5751L70.1229 19.2339C71.2672 18.0896 71.9568 16.718 72.078 15.3842C72.1917 14.0277 71.7143 12.7698 70.6912 11.7467C69.7743 10.8298 68.6527 10.3448 67.4478 10.3448C65.9776 10.3448 64.4696 11.0419 63.2116 12.2999L37.9992 36.8834C37.7794 37.0955 37.4915 37.2092 37.2035 37.2092C36.9155 37.2092 36.62 37.0955 36.4002 36.8758C35.9607 36.4362 35.9531 35.7239 36.3926 35.2768L54.7014 16.4603C55.8533 15.3084 56.5429 13.9444 56.6565 12.6106C56.7702 11.2541 56.2928 9.99617 55.2697 8.97312C54.3528 8.05617 53.2312 7.57117 52.0263 7.57117C50.5561 7.57117 49.0481 8.26835 47.7901 9.5339C41.0759 16.1269 23.5477 33.3671 22.9566 34.0037C20.7059 35.5572 20.2512 33.208 20.1375 31.6848C20.0087 29.9115 22.0397 23.7202 20.8575 18.1502C18.872 10.7464 13.1505 11.9589 13.0217 12.0195C9.88434 13.4897 10.483 15.6873 11.597 20.1054L11.7107 20.9769C12.8777 26.7514 4.86005 43.8628 4.26895 45.1435C1.12403 52.0244 -2.49831 65.9758 9.49786 77.9719C22.6459 91.12 38.9237 84.383 43.8874 79.4194Z" fill="url(#paint0_radial_7_5)"/>
<path d="M27.0186 86.8005C35.0817 86.8005 41.9399 82.9432 44.6453 80.2681C47.0779 78.2826 62.4312 63.4598 74.9351 51.3273C75.4428 50.8347 75.7383 50.5543 75.7687 50.5164C77.1858 49.0993 78.0648 47.6216 78.3149 46.2272C78.6029 44.6433 78.1103 43.2111 76.8675 41.9607C75.7308 40.824 74.3364 40.2253 72.8208 40.2253C71.0399 40.2253 69.2515 41.0437 67.7813 42.5215L55.194 54.6162L75.3215 33.8369C77.6405 31.518 78.8075 27.6759 75.8747 24.7508C74.738 23.6141 73.3437 23.0154 71.828 23.0154C70.0472 23.0154 68.2587 23.8338 66.7886 25.3116L46.2215 45.3633L70.9338 20.0296C72.2524 18.711 73.0633 17.0969 73.2072 15.4903C73.3512 13.7777 72.7601 12.209 71.4946 10.9434C70.3579 9.80671 68.9635 9.20804 67.4479 9.20804C65.6746 9.20804 63.8862 10.0189 62.4084 11.4966L37.2036 36.0725L55.5123 17.256C56.8385 15.9298 57.6494 14.3157 57.7858 12.7091C57.9297 11.0041 57.3387 9.43539 56.0731 8.16984C54.9364 7.03312 53.542 6.43445 52.0264 6.43445C50.2455 6.43445 48.4571 7.25289 46.9869 8.73062L41.5231 14.0884C31.7852 23.6368 23.6463 31.6317 22.7748 32.5259C22.3505 32.8669 21.7972 32.9958 21.5623 32.8821C21.4108 32.8063 21.244 32.4577 21.2744 31.7226C21.3198 30.4344 21.5017 28.8354 21.6912 27.1455C22.0701 23.7505 22.4641 20.2342 21.9715 17.9153C20.8955 13.8913 18.7812 12.1862 17.2049 11.4512C15.0376 10.4509 12.9384 10.7994 12.5368 10.9889C8.59615 12.838 9.3767 15.9298 10.4528 20.2191L10.4755 20.3251L10.5968 21.2118C11.3849 25.0918 7.3382 35.8148 3.29147 44.5524L3.23084 44.6737C0.525452 50.5846 -4.34729 65.7484 8.68709 78.7828C14.6814 84.7619 21.1683 86.8005 27.0186 86.8005ZM72.8208 42.4987C73.715 42.4987 74.5637 42.8701 75.2609 43.5673C75.9808 44.2872 76.2309 44.9844 76.0794 45.818C75.9126 46.7349 75.2382 47.8262 74.1848 48.8871C74.1772 48.8947 73.8741 49.1902 73.3512 49.6904C55.6033 66.9155 44.8878 77.1535 43.1751 78.5327L43.0842 78.6161C38.9011 82.7992 23.3583 90.2258 10.3012 77.1687C-1.72524 65.1422 2.79889 51.0999 5.30725 45.6134L5.3603 45.4997C7.96717 39.8767 13.8933 26.2361 12.8399 20.795L12.6656 19.6583C11.4986 15.0205 11.4304 14.0505 13.4083 13.0956C13.9918 12.9895 18.1749 12.4818 19.7739 18.4458C20.1755 20.3479 19.789 23.8262 19.448 26.8954C19.251 28.6308 19.0691 30.2752 19.0237 31.6469C18.9479 33.8066 19.9709 34.6326 20.5923 34.9358C21.8579 35.5496 23.3659 35.0267 24.3056 34.2386L24.4041 34.1476C24.8664 33.6475 35.8622 22.8638 43.1372 15.7252L48.6087 10.3523C50.4729 8.48054 52.8751 8.16984 54.4893 9.78398C55.2774 10.5721 55.6336 11.4966 55.5502 12.5197C55.4593 13.5882 54.8833 14.7022 53.9209 15.6646L35.5743 34.4811C35.1573 34.9098 34.9253 35.4851 34.9282 36.0832C34.931 36.6812 35.1685 37.2543 35.5894 37.6791C36.4306 38.5202 37.9159 38.5354 38.7798 37.7018L64.0074 13.1108C65.8716 11.2466 68.2815 10.9359 69.888 12.55C70.6762 13.3381 71.0323 14.2627 70.949 15.2857C70.8505 16.3542 70.2745 17.4758 69.3197 18.423L44.5922 43.7794C43.7208 44.6585 43.7283 46.0983 44.6074 46.9774C45.4486 47.8186 46.9339 47.8337 47.7978 47.0001L68.3876 26.9257C70.2518 25.0463 72.6616 24.7432 74.2682 26.3573C76.2309 28.3201 75.1851 30.7526 73.6998 32.2455L53.5647 53.0399C53.149 53.4667 52.9183 54.0402 52.9225 54.636C52.9268 55.2318 53.1657 55.8019 53.5875 56.2227C54.4362 57.0715 55.9064 57.0791 56.7703 56.253L69.3727 44.1432C70.4337 43.0747 71.6537 42.4987 72.8208 42.4987Z" fill="#EDA600"/>
<path d="M24.7678 33.2686C28.9282 41.7637 28.3901 53.6537 22.1457 63.1946C21.441 64.4829 20.2361 63.8539 20.8499 62.5277C28.3901 46.3939 20.4861 34.7691 20.4861 34.7691L24.7678 33.2686Z" fill="#EDA600"/>
<path d="M41.1289 1.41015C38.8403 0.81148 36.4002 0.864527 34.0282 1.41773C31.6714 1.98609 29.3146 3.18343 27.5641 5.13859C25.8514 7.07859 24.798 9.43539 24.4419 11.9059C24.1084 14.3536 24.4191 16.8771 25.5786 18.9687C25.715 16.6194 26.1242 14.4597 26.8138 12.4666C27.17 11.4739 27.5868 10.5266 28.0945 9.63242C28.5947 8.74578 29.1858 7.86671 29.8148 7.14679C31.0955 5.66906 32.8309 4.51718 34.7784 3.62296C36.7336 2.69843 38.863 2.0164 41.1289 1.41015Z" fill="#B0BEC5"/>
<path d="M40.5 8.59422C39.2345 7.79093 37.6506 7.62422 36.1577 7.88945C34.6497 8.15469 33.2098 8.90492 32.0731 9.94312C30.944 10.9965 30.1407 12.3227 29.6405 13.7019C29.398 14.3915 29.2768 15.119 29.1631 15.8237C29.1252 16.5512 29.1252 17.2787 29.2389 18.0062C29.7618 17.453 30.171 16.8998 30.5575 16.3618C31.0046 15.8541 31.3532 15.316 31.7548 14.8234C32.543 13.8459 33.3084 12.9592 34.1344 12.1711C34.9831 11.4057 35.8773 10.7312 36.9155 10.1477C37.9462 9.54906 39.1056 9.0489 40.5 8.59422Z" fill="#90A4AE"/>
<path d="M83.8241 56.6092C82.7556 58.7008 81.6416 60.6408 80.3458 62.3534C79.0575 64.0661 77.5798 65.5211 75.8595 66.4684C75.0259 66.9306 74.0332 67.3323 73.0632 67.6354C72.0856 67.9461 71.0702 68.1583 70.0244 68.3023C67.9328 68.5599 65.7352 68.5145 63.4087 68.1583C65.2123 69.727 67.6221 70.5606 70.0774 70.7424C72.563 70.9091 75.0866 70.3711 77.3448 69.098C79.6183 67.8021 81.2855 65.7409 82.3312 63.5508C83.377 61.3456 83.9378 58.9736 83.8241 56.6092Z" fill="#B0BEC5"/>
<path d="M76.6628 55.7226C75.9277 56.9957 75.2002 58.0188 74.4045 58.913C73.6164 59.8072 72.7676 60.5423 71.8431 61.2091C70.9034 61.8533 69.8728 62.4216 68.7512 62.99C68.1905 63.278 67.5918 63.5053 67.0007 63.8388C66.3869 64.104 65.7655 64.3844 65.1137 64.786C65.8033 65.0437 66.5081 65.1952 67.228 65.3089C67.9404 65.3392 68.6755 65.3771 69.403 65.2786C70.858 65.0816 72.313 64.5738 73.5861 63.6872C74.8365 62.7854 75.8747 61.535 76.443 60.1179C77.019 58.7084 77.1857 57.1321 76.6628 55.7226Z" fill="#90A4AE"/>
</g>
<defs>
<radialGradient id="paint0_radial_7_5" cx="0" cy="0" r="1" gradientUnits="userSpaceOnUse" gradientTransform="translate(55.621 26.7973) rotate(-135) scale(68.967)">
<stop offset="0.353" stop-color="#FFCA28"/>
<stop offset="0.872" stop-color="#FFB300"/>
</radialGradient>
<clipPath id="clip0_7_5">
<rect width="84" height="87" fill="white" transform="matrix(-1 0 0 1 84 0)"/>
</clipPath>
</defs>
</svg>
